# xmcd
#
# Track frame offsets:
#	150
#	13063
#	26108
#	38959
#	51802
#	63625
#	78962
#	91937
#	102748
#	119970
#	135355
#
# Disc length: 2075 seconds
#
# Revision: 1
# Processed by: cddbd v1.5.2PL0 Copyright (c) Steve Scherf et al.
# Submitted via: audiograbber 1.83.01
#
DISCID=9908190b
DTITLE=Albert King - King Of The Blues Guitar
DYEAR=2014
DGENRE=Blues
TTITLE0=Cold Feet
TTITLE1=You're Gonna Need Me
TTITLE2=Born Under A Bad Sign
TTITLE3=(I Love) Lucy
TTITLE4=Crosscut Saw
TTITLE5=You Sure Drive A Hard Bargain
TTITLE6=Oh, Pretty Woman (Can't Make You Love Me)
TTITLE7=Overall Junction
TTITLE8=Funk-Shun
TTITLE9=Laundromat Blues
TTITLE10=Personal Manager
EXTD=
EXTT0=
EXTT1=
EXTT2=
EXTT3=
EXTT4=
EXTT5=
EXTT6=
EXTT7=
EXTT8=
EXTT9=
EXTT10=
PLAYORDER=
